<?xml version="1.0" standalone="no"?>
<!DOCTYPE svg PUBLIC "-//W3C//DTD SVG 20010904//EN"
 "http://www.w3.org/TR/2001/REC-SVG-20010904/DTD/svg10.dtd">
<svg version="1.0" xmlns="http://www.w3.org/2000/svg"
 width="30.000000pt" height="30.000000pt" viewBox="0 0 30.000000 30.000000"
 preserveAspectRatio="xMidYMid meet">
<metadata>
Created by potrace 1.16, written by Peter Selinger 2001-2019
</metadata>
<g transform="translate(0.000000,30.000000) scale(0.015000,-0.014851)"
fill="#000000" stroke="none">
<path d="M664 1918 c-113 -188 -241 -358 -313 -416 -28 -23 -41 -43 -50 -78
-14 -56 -58 -101 -108 -110 -42 -8 -49 -24 -35 -73 24 -77 107 -121 193 -102
56 13 66 24 49 55 -16 31 -5 48 51 77 51 26 57 24 64 -15 12 -61 -24 -104
-107 -130 -33 -10 -20 -44 25 -71 51 -29 127 -34 183 -10 28 12 35 19 29 32
-12 30 -18 91 -11 117 3 14 33 54 65 88 68 74 81 96 81 137 0 34 11 39 31 15
36 -43 -7 -138 -185 -414 -89 -138 -105 -182 -92 -258 3 -20 15 -49 26 -64
l21 -28 -58 -68 c-131 -151 -303 -397 -303 -432 0 -25 17 -25 99 0 36 11 105
27 155 35 114 18 376 31 376 19 0 -5 -7 -34 -15 -64 -19 -69 -19 -79 0 -86 9
-4 35 16 71 56 105 113 238 191 392 231 41 10 81 19 87 19 7 0 16 -17 19 -37
17 -92 26 -93 108 -19 69 63 163 115 263 145 38 12 72 26 76 32 13 22 -60 332
-119 499 -50 145 -158 356 -239 470 -86 121 -253 288 -367 369 -79 56 -90 61
-104 48 -13 -14 -13 -20 6 -60 25 -53 48 -141 57 -221 l7 -60 -56 51 c-70 65
-147 102 -234 116 l-69 11 5 128 c5 124 4 128 -16 128 -15 0 -31 -18 -58 -62z
m174 -262 c73 -20 132 -57 186 -117 50 -56 62 -84 51 -126 -6 -27 -7 -26 -36
25 -58 99 -157 162 -255 162 -50 0 -89 26 -79 53 9 21 59 22 133 3z m-195 -50
c100 -42 122 -165 42 -235 -79 -69 -197 -38 -226 60 -16 53 -4 101 36 142 45
47 92 57 148 33z m834 -199 c58 -88 183 -330 183 -355 0 -6 -15 -4 -37 4 -21
7 -45 13 -54 14 -12 0 -26 32 -52 113 -37 116 -123 302 -178 385 l-30 47 51
-55 c28 -30 81 -99 117 -153z m-138 66 c64 -114 174 -395 159 -408 -2 -1 -19
-10 -38 -20 -19 -9 -45 -27 -57 -38 l-23 -20 0 44 c0 148 -45 364 -114 544
-14 37 30 -25 73 -102z m-474 63 c49 -21 69 -65 63 -141 -7 -78 -40 -149 -154
-325 -123 -190 -142 -238 -113 -292 9 -17 7 -25 -15 -46 -25 -25 -27 -26 -43
-9 -13 13 -18 34 -18 80 0 61 2 65 86 197 153 240 192 315 197 381 5 62 5 62
-79 133 -10 9 -19 21 -19 26 0 15 55 12 95 -4z m-456 -109 c6 -24 20 -55 31
-70 l21 -26 -40 -20 c-49 -26 -81 -65 -81 -102 0 -34 -20 -38 -75 -15 -29 12
-75 62 -64 69 2 2 24 12 48 22 46 20 85 68 97 120 7 30 31 65 44 65 4 0 13
-19 19 -43z m607 -52 c31 -71 30 -87 -7 -165 -61 -130 -276 -419 -300 -404
-27 16 0 78 101 229 118 177 170 289 170 367 0 15 2 28 6 28 3 0 16 -25 30
-55z m154 -67 c-15 -104 -43 -195 -129 -419 -39 -102 -74 -200 -77 -217 -4
-18 -9 -32 -13 -31 -3 0 -18 15 -32 32 l-27 32 69 115 c114 192 190 393 207
550 3 36 8 54 10 41 2 -13 -1 -60 -8 -103z m60 -197 c-6 -51 -15 -126 -21
-165 l-11 -72 -56 -12 c-30 -6 -57 -10 -59 -9 -1 2 18 57 43 123 44 117 85
260 101 359 8 47 8 45 11 -40 2 -49 -2 -132 -8 -184z m-129 158 c-34 -144
-109 -310 -213 -476 -36 -58 -41 -61 -64 -53 -14 6 -38 10 -54 10 -29 0 -28 2
57 103 142 168 229 313 269 448 25 85 29 65 5 -32z m219 -104 c5 -49 12 -150
14 -223 l4 -132 -41 25 c-23 13 -43 31 -45 39 -2 9 4 64 13 123 8 60 19 158
22 218 7 122 13 113 33 -50z m310 -168 c75 -40 109 -133 76 -210 -28 -65 -111
-114 -175 -102 -86 15 -141 82 -141 170 0 127 127 202 240 142z m-370 -200
c73 -38 108 -129 79 -204 -49 -130 -245 -142 -303 -18 -30 63 -18 151 27 193
60 56 127 66 197 29z m532 -225 l3 -44 -77 -27 -76 -28 -8 86 c-6 77 -5 86 12
96 11 5 39 30 64 55 l45 45 17 -70 c10 -38 19 -90 20 -113z m-951 105 c18 -12
44 -38 57 -57 20 -29 23 -44 20 -93 -7 -90 -60 -146 -145 -154 -62 -6 -114 16
-150 64 -24 31 -28 46 -28 97 0 69 24 113 79 147 45 27 123 26 167 -4z m682
-36 c51 -6 52 -7 59 -46 10 -55 10 -155 0 -155 -4 0 -36 -22 -70 -50 -34 -27
-62 -49 -62 -47 0 2 -11 70 -25 153 -14 82 -25 159 -25 172 l0 24 36 -22 c19
-12 58 -25 87 -29z m-414 -192 c38 -11 41 -15 41 -48 0 -34 -3 -38 -63 -69
-35 -18 -91 -55 -125 -82 -34 -28 -62 -45 -62 -39 0 7 19 85 42 174 l42 163
42 -43 c25 -26 58 -48 83 -56z m-539 -26 c8 -10 25 -30 38 -45 23 -25 24 -30
12 -60 -17 -44 -37 -58 -78 -58 -19 0 -79 -9 -134 -20 -55 -12 -102 -19 -105
-17 -4 5 138 206 195 276 l36 44 11 -51 c7 -28 18 -59 25 -69z"/>
<path d="M542 1527 c-46 -48 -15 -127 48 -127 38 0 80 39 80 75 0 35 -42 75
-78 75 -17 0 -37 -9 -50 -23z"/>
<path d="M1480 980 c-47 -25 -74 -73 -74 -132 0 -76 57 -137 135 -145 85 -8
159 59 159 146 0 116 -117 186 -220 131z m141 -59 c60 -60 27 -156 -57 -168
-33 -4 -45 -1 -72 22 -40 34 -51 84 -26 123 26 40 45 51 87 52 29 0 45 -7 68
-29z"/>
<path d="M1115 784 c-91 -46 -107 -171 -31 -241 46 -43 95 -51 154 -27 60 25
92 71 92 133 0 113 -117 186 -215 135z m136 -63 c60 -60 27 -156 -57 -168 -33
-4 -45 -1 -72 22 -75 63 -36 174 61 175 29 0 46 -7 68 -29z"/>
<path d="M725 680 c-46 -10 -74 -28 -95 -63 -25 -41 -26 -112 -2 -156 51 -94
209 -94 257 0 34 64 14 160 -40 195 -33 22 -84 32 -120 24z m75 -55 c31 -16
60 -61 60 -92 0 -34 -37 -81 -74 -93 -110 -36 -181 121 -82 181 38 23 58 24
96 4z"/>
</g>
</svg>
