<?xml version="1.0" standalone="no"?>
<!DOCTYPE svg PUBLIC "-//W3C//DTD SVG 20010904//EN"
 "http://www.w3.org/TR/2001/REC-SVG-20010904/DTD/svg10.dtd">
<svg version="1.0" xmlns="http://www.w3.org/2000/svg"
 width="269.000000pt" height="42.000000pt" viewBox="0 0 269.000000 42.000000"
 preserveAspectRatio="xMidYMid meet">

<g transform="translate(0.000000,42.000000) scale(0.100000,-0.100000)"
fill="#008000" stroke="none">
<path d="M420 266 c-20 -47 -40 -114 -40 -131 1 -16 28 37 46 88 9 27 18 46
21 43 6 -6 53 -117 53 -125 0 -3 -10 5 -22 16 -13 11 -29 23 -36 28 -26 14 6
-32 37 -54 32 -23 46 -27 35 -10 -4 7 -8 26 -10 44 -3 33 -48 145 -59 145 -3
0 -14 -20 -25 -44z"/>
<path d="M615 257 c-4 -33 -3 -77 2 -100 l9 -42 7 60 c4 33 3 78 -2 100 l-8
40 -8 -58z"/>
<path d="M696 296 c34 -15 59 -63 51 -98 -10 -37 -30 -58 -72 -73 -35 -12 -37
-14 -13 -15 66 -1 108 43 108 115 0 45 -37 85 -77 85 l-28 -1 31 -13z"/>
<path d="M876 288 c-9 -35 -7 -124 4 -152 8 -22 15 -26 52 -26 24 0 50 5 58
10 11 7 -2 10 -43 10 l-58 0 3 37 c3 38 3 38 44 35 23 -2 45 1 49 7 4 7 -11
11 -44 11 l-51 0 0 38 0 38 39 -4 c22 -2 48 1 58 7 14 8 5 10 -43 11 -56 0
-62 -2 -68 -22z"/>
<path d="M1598 299 c61 -18 91 -104 56 -159 -14 -22 -12 -22 10 3 56 61 16
168 -62 166 l-37 -1 33 -9z"/>
<path d="M2049 288 c-9 -19 -9 -21 2 -10 16 15 63 16 90 2 10 -6 19 -7 19 -2
0 18 -26 32 -62 32 -29 0 -40 -5 -49 -22z"/>
<path d="M2274 254 c-3 -30 -3 -74 2 -97 9 -42 9 -42 58 -45 27 -2 54 2 59 7
8 8 -6 11 -46 11 -54 0 -57 1 -57 24 0 43 8 52 44 48 19 -2 43 1 53 7 14 8 8
10 -33 11 -55 0 -64 8 -64 55 0 21 3 23 39 18 21 -3 47 0 57 6 15 8 7 10 -43
11 l-62 0 -7 -56z"/>
<path d="M1377 263 l-7 -43 -50 0 -50 0 0 36 c0 21 -4 33 -10 29 -5 -3 -10
-37 -10 -76 0 -39 4 -69 10 -69 6 0 10 15 10 33 0 32 0 32 49 32 l50 0 9 -45
8 -45 7 60 c4 33 3 76 -1 95 l-8 35 -7 -42z"/>
<path d="M1516 278 c-9 -12 -16 -42 -16 -66 0 -59 41 -102 97 -102 l38 0 -41
19 c-23 10 -49 29 -58 42 -18 27 -21 81 -6 110 14 26 5 24 -14 -3z"/>
<path d="M1797 287 c-15 -39 -8 -123 14 -151 11 -14 25 -26 31 -26 6 0 4 8 -5
18 -10 11 -19 48 -24 97 -5 51 -11 73 -16 62z"/>
<path d="M255 218 c-3 -40 -11 -80 -16 -90 -6 -12 -6 -18 0 -18 21 0 41 60 41
120 0 83 -16 76 -25 -12z"/>
<path d="M1907 219 c-4 -46 -12 -78 -23 -90 -9 -11 -12 -19 -6 -19 27 0 52 53
52 111 0 83 -16 81 -23 -2z"/>
<path d="M2042 228 c10 -16 29 -25 57 -29 56 -7 70 -22 46 -49 -21 -24 -49
-25 -87 -6 -31 16 -37 6 -12 -18 40 -41 129 4 122 62 -3 24 -9 28 -55 37 -28
6 -55 13 -59 18 -17 16 -25 5 -12 -15z"/>
<path d="M166 168 c-11 -37 -1 -58 26 -58 19 0 20 1 6 13 -9 6 -18 26 -20 42
l-4 30 -8 -27z"/>
</g>
</svg>
