<?xml version="1.0" standalone="no"?>
<!DOCTYPE svg PUBLIC "-//W3C//DTD SVG 20010904//EN"
 "http://www.w3.org/TR/2001/REC-SVG-20010904/DTD/svg10.dtd">
<svg version="1.0" xmlns="http://www.w3.org/2000/svg"
 width="31.88" height="32" viewBox="0 0 256 257"
 preserveAspectRatio="xMidYMid meet">

<g transform="translate(0.000000,500.000000) scale(0.100000,-0.100000)"
fill="#000000" stroke="none">
<path d="M2164 3808 c-113 -188 -241 -358 -313 -416 -28 -23 -41 -43 -50 -78
-14 -56 -58 -101 -108 -110 -42 -8 -49 -24 -35 -73 24 -77 107 -121 193 -102
56 13 66 24 49 55 -16 31 -5 48 51 77 51 26 57 24 64 -15 12 -61 -24 -104
-107 -130 -33 -10 -20 -44 25 -71 51 -29 127 -34 183 -10 28 12 35 19 29 32
-12 30 -18 91 -11 117 3 14 33 54 65 88 68 74 81 96 81 137 0 34 11 39 31 15
36 -43 -7 -138 -185 -414 -89 -138 -105 -182 -92 -258 3 -20 15 -49 26 -64
l21 -28 -58 -68 c-131 -151 -303 -397 -303 -432 0 -25 17 -25 99 0 36 11 105
27 155 35 114 18 376 31 376 19 0 -5 -7 -34 -15 -64 -19 -69 -19 -79 0 -86 9
-4 35 16 71 56 105 113 238 191 392 231 41 10 81 19 87 19 7 0 16 -17 19 -37
17 -92 26 -93 108 -19 69 63 163 115 263 145 38 12 72 26 76 32 13 22 -60 332
-119 499 -50 145 -158 356 -239 470 -86 121 -253 288 -367 369 -79 56 -90 61
-104 48 -13 -14 -13 -20 6 -60 25 -53 48 -141 57 -221 l7 -60 -56 51 c-70 65
-147 102 -234 116 l-69 11 5 128 c5 124 4 128 -16 128 -15 0 -31 -18 -58 -62z
m32 -95 c-4 -27 -14 -74 -23 -105 l-16 -58 -48 2 c-35 0 -46 4 -41 12 45 74
126 196 129 196 3 0 2 -21 -1 -47z m142 -167 c73 -20 132 -57 186 -117 50 -56
62 -84 51 -126 -6 -27 -7 -26 -36 25 -58 99 -157 162 -255 162 -50 0 -89 26
-79 53 9 21 59 22 133 3z m-195 -50 c100 -42 122 -165 42 -235 -79 -69 -197
-38 -226 60 -16 53 -4 101 36 142 45 47 92 57 148 33z m834 -199 c58 -88 183
-330 183 -355 0 -6 -15 -4 -37 4 -21 7 -45 13 -54 14 -12 0 -26 32 -52 113
-37 116 -123 302 -178 385 l-30 47 51 -55 c28 -30 81 -99 117 -153z m-138 66
c64 -114 174 -395 159 -408 -2 -1 -19 -10 -38 -20 -19 -9 -45 -27 -57 -38
l-23 -20 0 44 c0 148 -45 364 -114 544 -14 37 30 -25 73 -102z m-474 63 c49
-21 69 -65 63 -141 -7 -78 -40 -149 -154 -325 -123 -190 -142 -238 -113 -292
9 -17 7 -25 -15 -46 -25 -25 -27 -26 -43 -9 -13 13 -18 34 -18 80 0 61 2 65
86 197 153 240 192 315 197 381 5 62 5 62 -79 133 -10 9 -19 21 -19 26 0 15
55 12 95 -4z m-456 -109 c6 -24 20 -55 31 -70 l21 -26 -40 -20 c-49 -26 -81
-65 -81 -102 0 -34 -20 -38 -75 -15 -29 12 -75 62 -64 69 2 2 24 12 48 22 46
20 85 68 97 120 7 30 31 65 44 65 4 0 13 -19 19 -43z m607 -52 c31 -71 30 -87
-7 -165 -61 -130 -276 -419 -300 -404 -27 16 0 78 101 229 118 177 170 289
170 367 0 15 2 28 6 28 3 0 16 -25 30 -55z m154 -67 c-15 -104 -43 -195 -129
-419 -39 -102 -74 -200 -77 -217 -4 -18 -9 -32 -13 -31 -3 0 -18 15 -32 32
l-27 32 69 115 c114 192 190 393 207 550 3 36 8 54 10 41 2 -13 -1 -60 -8
-103z m60 -197 c-6 -51 -15 -126 -21 -165 l-11 -72 -56 -12 c-30 -6 -57 -10
-59 -9 -1 2 18 57 43 123 44 117 85 260 101 359 8 47 8 45 11 -40 2 -49 -2
-132 -8 -184z m-129 158 c-34 -144 -109 -310 -213 -476 -36 -58 -41 -61 -64
-53 -14 6 -38 10 -54 10 -29 0 -28 2 57 103 142 168 229 313 269 448 25 85 29
65 5 -32z m219 -104 c5 -49 12 -150 14 -223 l4 -132 -41 25 c-23 13 -43 31
-45 39 -2 9 4 64 13 123 8 60 19 158 22 218 7 122 13 113 33 -50z m-700 118
c0 -1 -10 -21 -21 -43 -18 -33 -21 -52 -16 -100 l5 -59 -32 -6 c-17 -4 -45 -1
-61 5 l-29 11 32 21 c43 27 62 66 62 125 0 47 1 48 30 48 17 0 30 -1 30 -2z
m1010 -286 c75 -40 109 -133 76 -210 -28 -65 -111 -114 -175 -102 -86 15 -141
82 -141 170 0 127 127 202 240 142z m-370 -200 c73 -38 108 -129 79 -204 -49
-130 -245 -142 -303 -18 -30 63 -18 151 27 193 60 56 127 66 197 29z m532
-225 l3 -44 -77 -27 -76 -28 -8 86 c-6 77 -5 86 12 96 11 5 39 30 64 55 l45
45 17 -70 c10 -38 19 -90 20 -113z m-951 105 c18 -12 44 -38 57 -57 20 -29 23
-44 20 -93 -7 -90 -60 -146 -145 -154 -62 -6 -114 16 -150 64 -24 31 -28 46
-28 97 0 69 24 113 79 147 45 27 123 26 167 -4z m682 -36 c51 -6 52 -7 59 -46
10 -55 10 -155 0 -155 -4 0 -36 -22 -70 -50 -34 -27 -62 -49 -62 -47 0 2 -11
70 -25 153 -14 82 -25 159 -25 172 l0 24 36 -22 c19 -12 58 -25 87 -29z m-414
-192 c38 -11 41 -15 41 -48 0 -34 -3 -38 -63 -69 -35 -18 -91 -55 -125 -82
-34 -28 -62 -45 -62 -39 0 7 19 85 42 174 l42 163 42 -43 c25 -26 58 -48 83
-56z m-539 -26 c8 -10 25 -30 38 -45 23 -25 24 -30 12 -60 -17 -44 -37 -58
-78 -58 -19 0 -79 -9 -134 -20 -55 -12 -102 -19 -105 -17 -4 5 138 206 195
276 l36 44 11 -51 c7 -28 18 -59 25 -69z m809 54 c8 -46 8 -47 -18 -53 -14 -3
-57 -14 -94 -24 -57 -15 -69 -15 -74 -4 -8 23 5 44 27 44 29 0 90 33 119 64
14 14 26 24 28 23 1 -2 7 -25 12 -50z m-504 -159 c-4 -18 -13 -36 -19 -40 -18
-12 -196 -10 -196 3 0 6 4 19 10 29 8 15 18 17 67 13 40 -4 69 0 93 10 50 22
52 21 45 -15z"/>
<path d="M2042 3417 c-46 -48 -15 -127 48 -127 38 0 80 39 80 75 0 35 -42 75
-78 75 -17 0 -37 -9 -50 -23z"/>
<path d="M2980 2870 c-47 -25 -74 -73 -74 -132 0 -76 57 -137 135 -145 85 -8
159 59 159 146 0 116 -117 186 -220 131z m141 -59 c60 -60 27 -156 -57 -168
-33 -4 -45 -1 -72 22 -40 34 -51 84 -26 123 26 40 45 51 87 52 29 0 45 -7 68
-29z"/>
<path d="M3017 2782 c-20 -22 -22 -63 -5 -80 20 -20 76 -15 88 7 15 29 12 49
-10 71 -25 25 -52 26 -73 2z"/>
<path d="M2615 2674 c-91 -46 -107 -171 -31 -241 46 -43 95 -51 154 -27 60 25
92 71 92 133 0 113 -117 186 -215 135z m136 -63 c60 -60 27 -156 -57 -168 -33
-4 -45 -1 -72 22 -75 63 -36 174 61 175 29 0 46 -7 68 -29z"/>
<path d="M2647 2582 c-20 -22 -22 -63 -5 -80 20 -20 76 -15 88 7 15 29 12 49
-10 71 -25 25 -52 26 -73 2z"/>
<path d="M2225 2570 c-74 -16 -115 -66 -115 -140 0 -90 60 -150 150 -150 84 0
142 59 142 145 0 98 -83 165 -177 145z m75 -55 c31 -16 60 -61 60 -92 0 -34
-37 -81 -74 -93 -110 -36 -181 121 -82 181 38 23 58 24 96 4z"/>
<path d="M2216 2464 c-21 -21 -20 -57 2 -77 37 -34 92 -11 92 38 0 13 -7 31
-16 39 -8 9 -26 16 -39 16 -13 0 -31 -7 -39 -16z"/>
<path d="M1630 1596 c-20 -47 -40 -114 -40 -131 1 -16 28 37 46 88 9 27 18 46
21 43 6 -6 53 -117 53 -125 0 -3 -10 5 -22 16 -13 11 -29 23 -36 28 -26 14 6
-32 37 -54 32 -23 46 -27 35 -10 -4 7 -8 26 -10 44 -3 33 -48 145 -59 145 -3
0 -14 -20 -25 -44z"/>
<path d="M1825 1587 c-4 -33 -3 -77 2 -100 l9 -42 7 60 c4 33 3 78 -2 100 l-8
40 -8 -58z"/>
<path d="M1906 1626 c34 -15 59 -63 51 -98 -10 -37 -30 -58 -72 -73 -35 -12
-37 -14 -13 -15 66 -1 108 43 108 115 0 45 -37 85 -77 85 l-28 -1 31 -13z"/>
<path d="M2086 1618 c-9 -35 -7 -124 4 -152 8 -22 15 -26 52 -26 24 0 50 5 58
10 11 7 -2 10 -43 10 l-58 0 3 37 c3 38 3 38 44 35 23 -2 45 1 49 7 4 7 -11
11 -44 11 l-51 0 0 38 0 38 39 -4 c22 -2 48 1 58 7 14 8 5 10 -43 11 -56 0
-62 -2 -68 -22z"/>
<path d="M2808 1629 c61 -18 91 -104 56 -159 -14 -22 -12 -22 10 3 56 61 16
168 -62 166 l-37 -1 33 -9z"/>
<path d="M3259 1618 c-9 -19 -9 -21 2 -10 16 15 63 16 90 2 10 -6 19 -7 19 -2
0 18 -26 32 -62 32 -29 0 -40 -5 -49 -22z"/>
<path d="M3484 1584 c-3 -30 -3 -74 2 -97 9 -42 9 -42 58 -45 27 -2 54 2 59 7
8 8 -6 11 -46 11 -54 0 -57 1 -57 24 0 43 8 52 44 48 19 -2 43 1 53 7 14 8 8
10 -33 11 -55 0 -64 8 -64 55 0 21 3 23 39 18 21 -3 47 0 57 6 15 8 7 10 -43
11 l-62 0 -7 -56z"/>
<path d="M2587 1593 l-7 -43 -50 0 -50 0 0 36 c0 21 -4 33 -10 29 -5 -3 -10
-37 -10 -76 0 -39 4 -69 10 -69 6 0 10 15 10 33 0 32 0 32 49 32 l50 0 9 -45
8 -45 7 60 c4 33 3 76 -1 95 l-8 35 -7 -42z"/>
<path d="M2726 1608 c-9 -12 -16 -42 -16 -66 0 -59 41 -102 97 -102 l38 0 -41
19 c-23 10 -49 29 -58 42 -18 27 -21 81 -6 110 14 26 5 24 -14 -3z"/>
<path d="M3007 1617 c-15 -39 -8 -123 14 -151 11 -14 25 -26 31 -26 6 0 4 8
-5 18 -10 11 -19 48 -24 97 -5 51 -11 73 -16 62z"/>
<path d="M1465 1548 c-3 -40 -11 -80 -16 -90 -6 -12 -6 -18 0 -18 21 0 41 60
41 120 0 83 -16 76 -25 -12z"/>
<path d="M3117 1549 c-4 -46 -12 -78 -23 -90 -9 -11 -12 -19 -6 -19 27 0 52
53 52 111 0 83 -16 81 -23 -2z"/>
<path d="M3252 1558 c10 -16 29 -25 57 -29 56 -7 70 -22 46 -49 -21 -24 -49
-25 -87 -6 -31 16 -37 6 -12 -18 40 -41 129 4 122 62 -3 24 -9 28 -55 37 -28
6 -55 13 -59 18 -17 16 -25 5 -12 -15z"/>
<path d="M1376 1498 c-11 -37 -1 -58 26 -58 19 0 20 1 6 13 -9 6 -18 26 -20
42 l-4 30 -8 -27z"/>
</g>
</svg>
