<?xml version="1.0" standalone="no"?>
<!DOCTYPE svg PUBLIC "-//W3C//DTD SVG 20010904//EN"
 "http://www.w3.org/TR/2001/REC-SVG-20010904/DTD/svg10.dtd">
<svg version="1.0" xmlns="http://www.w3.org/2000/svg"
 width="410.000000pt" height="363.000000pt" viewBox="0 0 410.000000 363.000000"
 preserveAspectRatio="xMidYMid meet">

<g transform="translate(0.000000,363.000000) scale(0.100000,-0.100000)"
fill="#000000" stroke="none">
<path d="M1610 3173 c-124 -206 -215 -327 -319 -426 -54 -51 -71 -74 -71 -95
0 -59 -78 -131 -143 -132 -27 0 -31 -26 -11 -78 36 -95 108 -133 210 -112 59
13 75 30 55 62 -19 31 -5 53 54 81 29 15 56 27 58 27 3 0 8 -18 12 -39 9 -52
-14 -95 -65 -121 -21 -11 -46 -20 -54 -20 -22 0 -28 -31 -10 -51 50 -55 161
-76 237 -44 l38 16 -27 -43 c-15 -24 -37 -56 -50 -73 -58 -77 -67 -187 -23
-269 l23 -44 -56 -61 c-89 -96 -258 -327 -341 -468 -4 -6 -1 -18 8 -26 13 -13
23 -12 88 8 119 38 241 56 425 62 l173 6 -6 -29 c-4 -16 -11 -42 -16 -58 -13
-42 -11 -76 5 -82 8 -3 49 30 102 84 94 94 176 148 296 196 75 29 206 62 215
53 3 -3 9 -28 14 -54 16 -84 27 -85 111 -9 81 74 211 145 312 171 33 8 63 20
67 26 3 6 0 45 -8 87 -103 561 -338 1015 -665 1288 -127 106 -205 156 -228
149 -25 -8 -25 -8 1 -75 31 -80 47 -149 55 -227 l7 -68 -55 51 c-83 78 -211
134 -306 134 -31 0 -34 2 -27 23 14 44 18 236 5 252 -23 27 -37 16 -90 -72z
m36 -117 c-3 -35 -13 -83 -21 -107 l-15 -44 -49 3 -49 4 67 104 c36 57 68 104
70 104 2 0 1 -29 -3 -64z m189 -168 c89 -31 167 -90 218 -168 17 -25 24 -110
9 -110 -5 0 -18 19 -28 42 -46 102 -174 188 -280 188 -46 0 -94 23 -94 44 0
40 67 41 175 4z m-222 -53 c50 -24 77 -72 77 -136 0 -95 -55 -149 -152 -149
-46 0 -62 5 -88 26 -113 96 -56 274 88 274 24 0 58 -7 75 -15z m838 -128 c33
-43 85 -122 116 -175 59 -99 148 -291 139 -299 -2 -3 -13 0 -23 5 -10 5 -34
12 -53 16 -36 6 -36 7 -74 124 -40 121 -123 307 -177 396 -44 72 -6 36 72 -67z
m-124 41 c74 -123 150 -296 188 -430 17 -59 14 -78 -9 -78 -7 0 -31 -13 -54
-29 -40 -29 -40 -30 -46 -8 -3 12 -6 47 -6 78 0 50 -22 192 -48 314 -5 22 -23
79 -39 128 -17 48 -29 87 -27 87 1 0 20 -28 41 -62z m-487 17 c45 -15 69 -62
70 -133 0 -67 -38 -162 -120 -297 -66 -108 -77 -135 -62 -161 9 -15 16 -9 51
45 22 35 38 68 34 74 -3 6 -1 7 5 3 7 -4 29 24 57 71 52 89 84 168 94 233 l8
45 26 -59 c15 -32 27 -68 27 -80 0 -30 -68 -169 -130 -266 -29 -44 -49 -84
-46 -89 3 -5 0 -8 -8 -7 -7 0 -30 -19 -50 -44 -79 -93 -124 -139 -130 -133
-13 14 -5 54 24 108 34 64 35 74 17 99 -12 17 -16 13 -48 -41 -60 -99 -73
-159 -44 -199 13 -19 12 -23 -16 -50 -30 -28 -31 -29 -45 -9 -48 65 -35 139
43 256 71 105 201 322 229 383 42 89 24 175 -44 210 -27 14 -42 34 -42 57 0 9
46 2 100 -16z m-500 -122 c6 -23 22 -55 35 -71 l24 -29 -40 -18 c-54 -25 -101
-79 -97 -114 3 -25 1 -26 -41 -24 -32 2 -51 9 -72 29 -16 15 -29 33 -29 40 0
7 20 22 44 33 50 22 101 83 111 134 7 31 47 86 52 70 1 -4 7 -27 13 -50z m438
15 c36 -36 0 -134 -126 -337 l-46 -74 -14 54 c-19 76 -6 112 69 188 62 63 89
111 89 156 0 27 9 32 28 13z m397 -135 c-8 -64 -24 -129 -62 -243 -13 -41 -23
-88 -20 -103 2 -19 0 -26 -9 -23 -16 6 -124 -256 -138 -337 l-7 -38 -33 43
-33 43 37 55 c58 86 133 231 119 228 -8 -2 -15 10 -19 30 -5 31 -6 31 -44 -45
-22 -43 -63 -115 -90 -160 -43 -70 -54 -82 -71 -76 -11 4 -38 9 -59 12 l-39 6
59 65 c110 122 128 149 129 196 0 24 6 49 14 56 11 11 12 5 6 -32 l-7 -45 46
68 c55 81 108 184 131 256 10 28 19 50 21 48 5 -4 -38 -157 -60 -217 -19 -50
-27 -152 -12 -147 30 10 115 245 131 365 9 71 18 66 10 -5z m72 -100 c-4 -82
-10 -159 -14 -172 -5 -18 -3 -22 7 -16 10 6 12 1 7 -25 -4 -18 -7 -41 -7 -51
0 -11 -5 -18 -12 -17 -8 2 -15 -15 -18 -44 -3 -26 -8 -49 -10 -51 -9 -6 -113
-27 -117 -23 -2 2 10 38 27 81 17 43 29 83 27 89 -2 6 2 16 8 21 15 13 60 159
76 245 6 36 13 75 15 88 3 12 7 22 11 22 3 0 3 -66 0 -147z m-677 63 c0 -3
-10 -21 -22 -41 -22 -38 -28 -98 -15 -147 6 -24 4 -27 -31 -33 -21 -3 -51 -1
-67 5 l-29 11 32 19 c48 29 72 76 72 138 0 51 0 52 30 52 17 0 30 -2 30 -4z
m761 -82 c9 -62 28 -424 23 -424 -1 0 -23 12 -49 26 -47 27 -47 27 -40 68 16
98 26 179 35 291 11 143 9 129 15 123 3 -2 10 -40 16 -84z m-204 -176 c-3 -8
-6 -5 -6 6 -1 11 2 17 5 13 3 -3 4 -12 1 -19z m535 -43 c42 -17 95 -75 104
-113 3 -15 8 -33 10 -41 6 -20 -16 -92 -38 -124 -29 -41 -88 -67 -150 -67 -62
0 -103 21 -144 76 -25 32 -29 47 -29 99 0 50 5 69 27 102 47 72 142 101 220
68z m-394 -224 c124 -64 136 -227 21 -310 -99 -72 -243 -17 -274 106 -38 148
118 273 253 204z m565 -128 c9 -43 19 -98 23 -123 l6 -45 -83 -27 c-46 -15
-85 -25 -87 -23 -2 1 -6 43 -9 91 l-5 89 41 23 c23 12 51 38 64 57 12 19 25
35 28 35 3 0 13 -35 22 -77z m-1016 -6 c45 -24 83 -92 83 -151 0 -149 -157
-234 -281 -152 -98 66 -106 204 -15 284 34 29 48 36 101 45 27 4 74 -6 112
-26z m641 -5 c36 -25 88 -42 128 -42 28 0 34 -4 35 -22 0 -13 4 -56 8 -96 4
-48 3 -78 -4 -86 -14 -18 -136 -108 -140 -104 -4 4 -41 216 -50 283 -3 28 -8
58 -11 68 -7 22 1 22 34 -1z m-358 -243 c26 -8 39 -18 42 -33 8 -50 -2 -65
-71 -101 -38 -20 -96 -58 -130 -86 -33 -27 -61 -45 -61 -39 0 11 67 282 81
328 l11 32 44 -45 c26 -25 62 -50 84 -56z m-552 -68 l37 -39 -18 -45 -19 -45
-70 -7 c-39 -4 -109 -15 -157 -25 -47 -10 -88 -16 -90 -14 -6 5 100 158 178
256 l64 81 19 -61 c12 -41 31 -75 56 -101z m852 94 c7 -43 6 -46 -19 -51 -14
-3 -59 -14 -99 -25 -89 -23 -82 -24 -82 6 0 17 6 25 18 25 28 0 115 45 141 74
14 14 27 24 29 21 3 -3 8 -25 12 -50z m-553 -175 l-11 -40 -113 0 -114 0 15
29 c14 27 18 28 56 21 42 -8 119 2 148 19 28 17 30 13 19 -29z"/>
<path d="M1520 2783 c-35 -13 -60 -47 -60 -82 1 -66 54 -102 114 -77 70 29 67
130 -5 155 -18 6 -32 11 -33 10 -1 0 -8 -3 -16 -6z"/>
<path d="M2530 2172 c-120 -53 -136 -226 -28 -292 71 -43 139 -37 199 17 85
77 69 216 -31 268 -29 15 -112 19 -140 7z m110 -57 c103 -53 66 -205 -49 -205
-92 0 -139 110 -77 179 38 42 79 50 126 26z"/>
<path d="M2547 2062 c-10 -10 -17 -30 -17 -44 0 -58 83 -83 116 -33 40 61 -50
131 -99 77z"/>
<path d="M2155 1960 c-46 -10 -72 -27 -102 -67 -23 -29 -28 -46 -28 -93 0 -47
5 -63 29 -94 75 -99 204 -94 276 10 19 28 22 43 18 92 -3 39 -11 69 -26 89
-34 48 -110 77 -167 63z m92 -70 c99 -60 35 -218 -79 -196 -53 10 -83 48 -83
106 0 91 84 138 162 90z"/>
<path d="M2140 1840 c-26 -26 -25 -50 0 -78 40 -43 110 -18 110 40 0 53 -71
77 -110 38z"/>
<path d="M1655 1826 c-40 -17 -82 -67 -96 -115 -20 -67 17 -148 82 -182 98
-49 210 -2 240 103 36 127 -104 247 -226 194z m141 -80 c25 -25 34 -43 34 -67
0 -84 -81 -139 -153 -104 -105 50 -72 205 45 205 32 0 47 -7 74 -34z"/>
<path d="M1680 1720 c-41 -41 -14 -110 42 -110 55 0 81 83 36 114 -30 21 -54
20 -78 -4z"/>
<path d="M725 1035 c-51 -50 -26 -101 65 -134 65 -24 76 -36 66 -76 -7 -28
-41 -41 -81 -31 -24 6 -60 58 -48 70 4 3 3 6 0 6 -4 0 -13 -13 -21 -29 -15
-29 -15 -29 18 -45 65 -31 136 -15 156 35 7 15 9 37 5 49 -7 23 -60 60 -86 60
-26 0 -69 40 -69 64 0 29 18 46 50 46 34 0 59 -19 68 -52 l7 -27 17 29 c16 29
16 29 -17 44 -50 24 -101 21 -130 -9z"/>
<path d="M1654 1041 c-34 -21 -64 -75 -64 -117 0 -15 9 -47 20 -70 25 -50 72
-77 130 -73 31 3 45 -2 67 -23 57 -55 174 -58 219 -6 18 21 18 21 -13 -2 -41
-30 -103 -32 -140 -4 -15 12 -47 46 -71 77 -24 32 -47 57 -52 57 -5 0 -25 -14
-45 -31 l-35 -31 -20 43 c-55 123 11 225 111 173 53 -27 86 -133 59 -185 -18
-34 9 -22 30 14 71 116 -77 251 -196 178z m96 -218 c19 -25 20 -28 5 -31 -26
-6 -65 7 -65 21 0 14 19 37 31 37 4 0 17 -12 29 -27z"/>
<path d="M2829 1047 c-8 -7 -36 -61 -63 -122 -26 -60 -55 -116 -64 -122 -13
-11 -10 -13 24 -12 21 1 31 3 22 6 -19 5 -23 20 -9 41 5 9 29 12 82 10 67 -3
74 -5 77 -25 2 -14 -3 -23 -15 -26 -10 -3 6 -5 36 -6 46 -1 52 1 39 12 -9 6
-37 67 -63 135 -26 67 -48 122 -49 122 0 0 -8 -6 -17 -13z m24 -105 c15 -37
27 -71 27 -75 0 -4 -30 -7 -66 -7 -49 0 -65 3 -61 13 28 68 61 137 67 137 4 0
19 -30 33 -68z"/>
<path d="M963 1043 c15 -4 17 -17 17 -93 0 -100 12 -135 51 -156 52 -27 115
-8 137 41 7 14 12 64 12 110 0 69 3 86 18 94 14 8 10 10 -21 11 -35 0 -37 -1
-23 -16 12 -11 16 -36 16 -94 0 -89 -11 -123 -47 -139 -36 -16 -51 -14 -78 14
-23 22 -25 31 -25 124 0 86 2 100 18 104 9 3 -8 5 -38 5 -30 0 -47 -2 -37 -5z"/>
<path d="M1283 1039 c14 -9 17 -26 17 -119 0 -93 -3 -110 -17 -119 -14 -8 -10
-10 22 -10 32 0 36 2 23 10 -15 8 -18 25 -18 110 l0 100 73 -88 c40 -48 82
-101 95 -117 l22 -29 0 126 c0 109 2 127 18 136 14 8 9 10 -22 11 -35 0 -38
-2 -22 -13 14 -10 16 -26 14 -97 l-3 -84 -79 97 c-69 86 -82 97 -110 97 -26
-1 -28 -2 -13 -11z"/>
<path d="M1943 1043 c15 -4 17 -17 17 -93 0 -100 12 -135 51 -156 52 -27 115
-8 137 41 7 14 12 64 12 110 0 69 3 86 18 94 14 8 10 10 -21 11 -35 0 -37 -1
-23 -16 12 -11 16 -36 16 -94 0 -89 -11 -123 -47 -139 -36 -16 -51 -14 -78 14
-23 22 -25 31 -25 124 0 86 2 100 18 104 9 3 -8 5 -38 5 -30 0 -47 -2 -37 -5z"/>
<path d="M2300 933 c25 -65 49 -126 53 -137 7 -17 9 -18 26 -2 10 9 26 41 36
71 11 30 22 52 26 47 4 -4 17 -35 29 -69 19 -54 24 -60 39 -51 10 6 37 62 61
125 24 63 51 118 60 123 10 7 3 9 -25 9 -22 -1 -32 -3 -22 -6 9 -2 17 -9 17
-14 0 -20 -73 -199 -81 -199 -5 0 -9 2 -9 4 0 2 -16 47 -35 100 l-35 97 23 9
c17 7 12 9 -29 9 l-51 1 25 -52 c22 -46 23 -55 12 -92 -29 -97 -33 -97 -73 11
-42 112 -44 120 -19 126 9 3 -4 5 -29 6 l-46 1 47 -117z"/>
<path d="M3053 1039 c14 -9 17 -26 17 -119 0 -93 -3 -110 -17 -119 -14 -8 -10
-10 22 -10 32 0 36 2 23 10 -15 8 -18 25 -18 110 l0 100 73 -88 c40 -48 82
-101 95 -117 l22 -29 0 126 c0 109 2 127 18 136 14 8 9 10 -22 11 -35 0 -38
-2 -22 -13 14 -10 16 -26 14 -97 l-3 -84 -79 97 c-69 86 -82 97 -110 97 -26
-1 -28 -2 -13 -11z"/>
</g>
</svg>
