<?xml version="1.0" standalone="no"?>
<!DOCTYPE svg PUBLIC "-//W3C//DTD SVG 20010904//EN"
 "http://www.w3.org/TR/2001/REC-SVG-20010904/DTD/svg10.dtd">
<svg version="1.0" xmlns="http://www.w3.org/2000/svg"
 width="308.000000pt" height="85.000000pt" viewBox="auto auto auto auto"
 preserveAspectRatio="xMidYMid meet">

<g transform="translate(0.000000,85.000000) scale(0.100000,-0.100000)"
fill="#008000" stroke="none">
<path d="M345 485 c-51 -50 -26 -101 65 -134 65 -24 76 -36 66 -76 -7 -28 -41
-41 -81 -31 -24 6 -60 58 -48 70 4 3 3 6 0 6 -4 0 -13 -13 -21 -29 -15 -29
-15 -29 18 -45 65 -31 136 -15 156 35 7 15 9 37 5 49 -7 23 -60 60 -86 60 -26
0 -69 40 -69 64 0 29 18 46 50 46 34 0 59 -19 68 -52 l7 -27 17 29 c16 29 16
29 -17 44 -50 24 -101 21 -130 -9z"/>
<path d="M1274 491 c-34 -21 -64 -75 -64 -117 0 -15 9 -47 20 -70 25 -50 72
-77 130 -73 31 3 45 -2 67 -23 57 -55 174 -58 219 -6 18 21 18 21 -13 -2 -41
-30 -103 -32 -140 -4 -15 12 -47 46 -71 77 -24 32 -47 57 -52 57 -5 0 -25 -14
-45 -31 l-35 -31 -20 43 c-55 123 11 225 111 173 53 -27 86 -133 59 -185 -18
-34 9 -22 30 14 71 116 -77 251 -196 178z m96 -218 c19 -25 20 -28 5 -31 -26
-6 -65 7 -65 21 0 14 19 37 31 37 4 0 17 -12 29 -27z"/>
<path d="M2449 497 c-8 -7 -36 -61 -63 -122 -26 -60 -55 -116 -64 -122 -13
-11 -10 -13 24 -12 21 1 31 3 22 6 -19 5 -23 20 -9 41 5 9 29 12 82 10 67 -3
74 -5 77 -25 2 -14 -3 -23 -15 -26 -10 -3 6 -5 36 -6 46 -1 52 1 39 12 -9 6
-37 67 -63 135 -26 67 -48 122 -49 122 0 0 -8 -6 -17 -13z m24 -105 c15 -37
27 -71 27 -75 0 -4 -30 -7 -66 -7 -49 0 -65 3 -61 13 28 68 61 137 67 137 4 0
19 -30 33 -68z"/>
<path d="M583 493 c15 -4 17 -17 17 -93 0 -100 12 -135 51 -156 35 -18 63 -18
98 0 39 21 51 56 51 151 0 69 3 86 18 94 14 8 10 10 -21 11 -35 0 -37 -1 -23
-16 12 -11 16 -36 16 -94 0 -89 -11 -123 -47 -139 -36 -16 -51 -14 -78 14 -23
22 -25 31 -25 124 0 86 2 100 18 104 9 3 -8 5 -38 5 -30 0 -47 -2 -37 -5z"/>
<path d="M903 489 c14 -9 17 -26 17 -119 0 -93 -3 -110 -17 -119 -14 -8 -10
-10 22 -10 32 0 36 2 23 10 -15 8 -18 25 -18 110 l0 100 73 -88 c40 -48 82
-101 95 -117 l22 -29 0 126 c0 109 2 127 18 136 14 8 9 10 -22 11 -35 0 -38
-2 -22 -13 14 -10 16 -26 14 -97 l-3 -84 -79 97 c-69 86 -82 97 -110 97 -26
-1 -28 -2 -13 -11z"/>
<path d="M1563 493 c15 -4 17 -17 17 -93 0 -100 12 -135 51 -156 35 -18 63
-18 98 0 39 21 51 56 51 151 0 69 3 86 18 94 14 8 10 10 -21 11 -35 0 -37 -1
-23 -16 12 -11 16 -36 16 -94 0 -89 -11 -123 -47 -139 -36 -16 -51 -14 -78 14
-23 22 -25 31 -25 124 0 86 2 100 18 104 9 3 -8 5 -38 5 -30 0 -47 -2 -37 -5z"/>
<path d="M1920 383 c25 -65 49 -126 53 -137 7 -17 9 -18 26 -2 10 9 26 41 36
71 11 30 22 52 26 47 4 -4 17 -35 29 -69 19 -54 24 -60 39 -51 10 6 37 62 61
125 24 63 51 118 60 123 10 7 3 9 -25 9 -22 -1 -32 -3 -22 -6 9 -2 17 -9 17
-14 0 -20 -73 -199 -81 -199 -5 0 -9 2 -9 4 0 2 -16 47 -35 100 l-35 97 23 9
c17 7 12 9 -29 9 l-51 1 25 -52 c22 -46 23 -55 12 -92 -29 -97 -33 -97 -73 11
-42 112 -44 120 -19 126 9 3 -4 5 -29 6 l-46 1 47 -117z"/>
<path d="M2673 489 c14 -9 17 -26 17 -119 0 -93 -3 -110 -17 -119 -14 -8 -10
-10 22 -10 32 0 36 2 23 10 -15 8 -18 25 -18 110 l0 100 73 -88 c40 -48 82
-101 95 -117 l22 -29 0 126 c0 109 2 127 18 136 14 8 9 10 -22 11 -35 0 -38
-2 -22 -13 14 -10 16 -26 14 -97 l-3 -84 -79 97 c-69 86 -82 97 -110 97 -26
-1 -28 -2 -13 -11z"/>
</g>
</svg>
